<svg width="70.96200561523438" height="70.96200561523438" xmlns="http://www.w3.org/2000/svg" preserveAspectRatio="xMidYMid meet">

 <g>
  <title>background</title>
  <rect fill="none" id="canvas_background" height="402" width="582" y="-1" x="-1"/>
 </g>
 <g>
  <title>Layer 1</title>
  <path id="svg_2" fill="#ff6600" d="m60.548738,42.574486c-1.566,-2.001 -9.015,-9.555 -5.801,-17.751c0,0 -7.606,5.946 -4.751,14.56c-1.318,-1.916 -13.833,-8.452 -12.791,-32.56c0,0 -0.79,0.78 -2,2.149l0,61.836c6.901,-0.193 12.097,-2.271 12.097,-2.271s20.052,-10.074 13.246,-25.963z"/>
  <path id="svg_3" fill="#ff7b23" d="m22.351351,36.192488c0,0 1.979,15.958 8.575,18.514c0,0 -13.191,-3.193 -15.83,-19.154c-0.658,1.916 -18.65,19.275 6.546,32.664c4.649,2.139 9.445,2.711 13.617,2.594l0,-61.837c-4.061,4.598 -12.908,15.906 -12.908,27.219z"/>
 </g>
</svg>