<svg width="24.000000000000004" height="24.000000000000004" xmlns="http://www.w3.org/2000/svg">

 <g>
  <title>background</title>
  <rect fill="none" id="canvas_background" height="402" width="582" y="-1" x="-1"/>
 </g>
 <g>
  <title>Layer 1</title>
  <line id="svg_1" y2="22" y1="2" x2="4" x1="4" stroke-width="2" stroke-miterlimit="10" stroke="#ffffff" fill="none"/>
  <rect fill="#ffffff" id="svg_3" y="7" x="11" width="3" height="3"/>
  <path fill="#ffffff" id="svg_4" d="m6,2l0,13l14,0c1.1,0 2,-0.9 2,-2l0,-9c0,-1.1 -0.9,-2 -2,-2l-14,0zm14,5l-3,0l0,3l3,0l0,3l-3,0l0,-3l-3,0l0,3l-3,0l0,-3l-3,0l0,-3l3,0l0,-3l3,0l0,3l3,0l0,-3l3,0l0,3z"/>
 </g>
</svg>